<?xml version="1.0" encoding="utf-8"?>
<!-- Svg Vector Icons : http://www.onlinewebfonts.com/icon -->
<!DOCTYPE svg PUBLIC "-//W3C//DTD SVG 1.1//EN" "http://www.w3.org/Graphics/SVG/1.1/DTD/svg11.dtd">
<svg version="1.1" xmlns="http://www.w3.org/2000/svg" xmlns:xlink="http://www.w3.org/1999/xlink" x="0px" y="0px" viewBox="0 0 1000 1000" width="80px" height="80px" enable-background="new 0 0 1000 1000" xml:space="preserve">
<g><g><path style="fill:#FFFFFF;" d="M47.2,445.2h0.5c5.8-46,16.5-90.1,32-132.2c15.5-42.2,36.5-81.8,63-118.8c26.5-37,57-69.2,91.7-96.4c34.7-27.2,75.5-48.6,122.4-64.3C403.7,17.8,454.2,10,508.2,10c84.3,0,159.9,19.3,226.7,57.8c66.8,38.5,120.4,93.9,161,166.2c38,68.3,56.9,148.9,56.9,242v102.9H336.9c0.4,40.5,10.1,75.6,29.3,105.4c19.2,29.7,44.1,52.1,74.7,67.1c30.7,15,65.2,25.4,103.7,31.2c38.5,5.8,77.4,6.4,116.6,1.6c39.2-4.7,77.2-13.2,113.9-25.5s68.3-27.6,95-46.3v206.4c-33.6,20.1-75.5,36.9-125.6,50.4S637.2,989.6,573.4,990c-63.9,0.4-121.5-9.3-173-29c-69-26.6-125.8-72.1-170.5-136.3c-44.7-64.2-67.4-132.1-68.2-203.7c-1.1-88.3,19.2-163.5,60.8-225.6c41.6-62,100.9-111,177.9-146.7c-17.5,21.9-31.8,44.8-42.7,68.7c-10.9,23.9-19.3,53-25.2,87.3h347.6c2.9-28.1,1.5-53.7-4.4-76.6c-5.8-23-14.4-41.5-25.7-55.6c-11.3-14.1-24.2-26.2-38.6-36.4c-14.4-10.2-29.1-17.7-44.1-22.4c-15-4.7-28.7-8.5-41.1-11.2c-12.4-2.7-22.6-4.3-30.7-4.7l-12-0.5c-49.3,1.8-96.6,9.9-142.1,24.4c-45.4,14.4-86.2,33.5-122.4,57.2c-36.1,23.7-68.3,49.4-96.4,76.9C94.7,383.3,69.5,413.1,47.2,445.2L47.2,445.2z"/></g></g>
</svg>
