<?xml version="1.0" encoding="utf-8"?>
<!-- Generator: Adobe Illustrator 21.0.2, SVG Export Plug-In . SVG Version: 6.00 Build 0)  -->
<svg version="1.1" id="Layer_1" xmlns="http://www.w3.org/2000/svg" xmlns:xlink="http://www.w3.org/1999/xlink" x="0px" y="0px"
	 viewBox="0 0 80 80" style="enable-background:new 0 0 80 80;" xml:space="preserve">
<style type="text/css">
	.st0{fill:#FFFFFF;}
</style>
<path class="st0" d="M58,53c0,2.8-2.2,5-5,5H27c-2.8,0-5-2.2-5-5V27c0-2.8,2.2-5,5-5h26c2.8,0,5,2.2,5,5V53z"/>
<path d="M49,41.6c-0.7-0.9-1.6-1.5-2.8-1.8c0,0,1-0.4,1.9-1.8c0.5-0.9,0.8-1.9,0.8-3.2c0-2.2-0.8-3.8-2.3-4.9
	c-1.6-1.1-3.3-1.9-6.3-1.9H31v24h10.4c2.8,0,5-0.6,6.4-1.8c1.4-1.2,2.2-3,2.2-5.3C50,43.6,49.7,42.5,49,41.6z M37,32
	c0,0,4.2,0,4.3,0c1.5,0,2.8,1.2,2.8,2.8s-1.2,2.8-2.8,2.8c-0.1,0-4.3,0-4.3,0V32z M42,48h-5v-6h5c1.7,0,3,1.3,3,3S43.7,48,42,48z"/>
</svg>
