<?xml version="1.0" encoding="utf-8"?>
<!-- Svg Vector Icons : http://www.onlinewebfonts.com/icon -->
<svg version="1.1" xmlns="http://www.w3.org/2000/svg" xmlns:xlink="http://www.w3.org/1999/xlink" x="0px" y="0px" viewBox="0 0 1000 1000" width="80px" height="80px" enable-background="new 0 0 1000 1000" xml:space="preserve">
<g><path fill="#ffffff" d="M10,101c53-9.7,126.6-16.9,226.6-16.9c108.5,0,188.1,22.9,239.9,66.3c48.2,39.8,79.6,103.7,79.6,179.6c0,77.2-24.1,141-69.9,184.4c-59.1,59.1-151.9,86.8-256.8,86.8c-27.7,0-53-1.2-72.3-4.8v306.2H10V101z M157.1,479.5c18.1,4.8,42.2,6,72.3,6c110.9,0,178.4-54.2,178.4-149.5c0-90.4-62.7-138.6-165.2-138.6c-41,0-69.9,3.6-85.6,7.2V479.5z M588.6,486.7c0-103.7,85.6-184.4,221.8-184.4c65.1,0,121.8,16.9,155.5,35L937,442.1c-25.3-14.5-72.3-33.7-124.2-33.7c-53,0-82,25.3-82,61.5c0,37.4,27.7,55.5,102.5,82c106.1,38.6,155.5,92.8,156.7,179.6c0,106.1-83.2,184.5-238.7,184.5c-71.1,0-135-18.1-178.4-42.2l28.9-107.3c33.8,20.5,97.7,42.2,150.7,42.2c65.1,0,94-26.5,94-65.1c0-39.8-24.1-60.3-96.4-85.6C635.6,618.1,587.4,555.4,588.6,486.7z"/></g>
</svg>
